<svg xmlns="http://www.w3.org/2000/svg" viewBox="0 0 32 32" width="32" height="32"><rect width="32" height="32" fill="#F7F3EA"/><g transform="translate(4.309 26) scale(0.016697)" fill="#2E2723"><path d="M350.6 -1400.0H1049.4Q1087.4 -1400.0 1111.3 -1409.6Q1135.2 -1419.2 1154.2 -1428.3Q1173.2 -1437.4 1195.2 -1437.4Q1229.0 -1437.4 1246.6 -1421.1Q1264.2 -1404.8 1274.4 -1366.0L1341.2 -1045.0Q1347.2 -1015.8 1337.1 -997.4Q1327.0 -979.0 1302.0 -974.6Q1278.8 -969.6 1260.9 -978.4Q1243.0 -987.2 1230.8 -1012.8Q1179.4 -1128.8 1142.4 -1188.8Q1105.4 -1248.8 1068.2 -1270.9Q1031.0 -1293.0 977.4 -1293.0H855.2V-170.0Q855.2 -147.4 868.2 -133.3Q881.2 -119.2 905.4 -112.0L961.8 -99.2Q1004.6 -85.6 1004.6 -47.2Q1004.6 0.0 943.0 0.0H457.0Q425.4 0.0 410.4 -12.9Q395.4 -25.8 395.4 -47.2Q395.4 -85.6 438.2 -99.2L494.6 -112.0Q519.4 -119.2 532.1 -133.3Q544.8 -147.4 544.8 -170.0V-1293.0H422.6Q370.0 -1293.0 332.5 -1270.9Q295.0 -1248.8 258.0 -1188.8Q221.0 -1128.8 169.2 -1012.8Q157.4 -987.2 139.3 -978.4Q121.2 -969.6 98.0 -974.6Q73.6 -979.0 63.5 -997.4Q53.4 -1015.8 58.8 -1045.0L125.6 -1366.0Q135.8 -1404.8 153.4 -1421.1Q171.0 -1437.4 204.8 -1437.4Q227.2 -1437.4 246.0 -1428.3Q264.8 -1419.2 288.9 -1409.6Q313.0 -1400.0 350.6 -1400.0Z"/></g><rect x="6" y="28" width="20" height="2" fill="#9A5B2B"/></svg>
